<?xml version="1.0"?>
<!-- Generated by SVGo -->
<svg width="500" height="500"
     xmlns="http://www.w3.org/2000/svg"
     xmlns:xlink="http://www.w3.org/1999/xlink">
<circle cx="250" cy="250" r="100" />
<polygon points="249,0 426,73 500,249 426,426 250,500 73,426 0,250 73,73" style="fill:white; stroke:black; " />
<line x1="250" y1="250" x2="249" y2="0" style="stroke:black;" />
<line x1="250" y1="250" x2="426" y2="73" style="stroke:black;" />
<line x1="250" y1="250" x2="500" y2="249" style="stroke:black;" />
<line x1="250" y1="250" x2="426" y2="426" style="stroke:black;" />
<line x1="250" y1="250" x2="250" y2="500" style="stroke:black;" />
<line x1="250" y1="250" x2="73" y2="426" style="stroke:black;" />
<line x1="250" y1="250" x2="0" y2="250" style="stroke:black;" />
<line x1="250" y1="250" x2="73" y2="73" style="stroke:black;" />
<polygon points="249,44 344,155 450,249 386,386 250,355 173,326 109,250 92,92" style="fill:none; stroke:red; " />
<polygon points="250,250 250,250 250,250 250,250 250,250 250,250 250,250 250,250" style="fill:none; stroke:black;" />
<polygon points="300,250 285,285 250,300 214,285 200,250 214,214 250,200 285,214" style="fill:none; stroke:black;" />
<polygon points="350,250 320,320 250,350 179,320 150,250 179,179 249,150 320,179" style="fill:none; stroke:black;" />
<polygon points="400,250 356,356 250,400 143,356 100,250 143,143 249,100 356,143" style="fill:none; stroke:black;" />
<polygon points="450,250 391,391 250,450 108,391 50,250 108,108 249,50 391,108" style="fill:none; stroke:black;" />
<text x="250" y="250" style="text-anchor:middle; font-size:30px; fill:white;" >test</text>
<text x="249" y="0" style="text-anchor:middle; font-size:30px; fill:black;" >MHP</text>
<text x="426" y="73" style="text-anchor:middle; font-size:30px; fill:black;" >MMP</text>
<text x="500" y="249" style="text-anchor:middle; font-size:30px; fill:black;" >ATK</text>
<text x="426" y="426" style="text-anchor:middle; font-size:30px; fill:black;" >DEF</text>
<text x="250" y="500" style="text-anchor:middle; font-size:30px; fill:black;" >MAT</text>
<text x="73" y="426" style="text-anchor:middle; font-size:30px; fill:black;" >MDF</text>
<text x="0" y="250" style="text-anchor:middle; font-size:30px; fill:black;" >AGI</text>
<text x="73" y="73" style="text-anchor:middle; font-size:30px; fill:black;" >LUK</text>
</svg>
