<?xml version="1.0"?>
<!-- Generated by SVGo -->
<svg width="500" height="500"
     xmlns="http://www.w3.org/2000/svg"
     xmlns:xlink="http://www.w3.org/1999/xlink">
<circle cx="250" cy="250" r="100" />
<polygon points="475,250 409,409 250,475 90,409 25,250 90,90 249,25 409,90" style="fill:#FAFAFA; stroke:#BDBDBD; " />
<polygon points="434,250 335,335 250,430 127,372 154,250 181,181 249,123 391,108" style="fill:#BBD9E7; stroke:#91C0DA; stroke-width: 3px;" />
<line x1="250" y1="250" x2="475" y2="250" style="fill:#FAFAFA; stroke:#BDBDBD; " />
<line x1="250" y1="250" x2="409" y2="409" style="fill:#FAFAFA; stroke:#BDBDBD; " />
<line x1="250" y1="250" x2="250" y2="475" style="fill:#FAFAFA; stroke:#BDBDBD; " />
<line x1="250" y1="250" x2="90" y2="409" style="fill:#FAFAFA; stroke:#BDBDBD; " />
<line x1="250" y1="250" x2="25" y2="250" style="fill:#FAFAFA; stroke:#BDBDBD; " />
<line x1="250" y1="250" x2="90" y2="90" style="fill:#FAFAFA; stroke:#BDBDBD; " />
<line x1="250" y1="250" x2="249" y2="25" style="fill:#FAFAFA; stroke:#BDBDBD; " />
<line x1="250" y1="250" x2="409" y2="90" style="fill:#FAFAFA; stroke:#BDBDBD; " />
<polygon points="250,250 250,250 250,250 250,250 250,250 250,250 250,250 250,250" style="fill:none; stroke:#BDBDBD;" />
<polygon points="300,250 285,285 250,300 214,285 200,250 214,214 250,200 285,214" style="fill:none; stroke:#BDBDBD;" />
<polygon points="350,250 320,320 250,350 179,320 150,250 179,179 249,150 320,179" style="fill:none; stroke:#BDBDBD;" />
<polygon points="400,250 356,356 250,400 143,356 100,250 143,143 249,100 356,143" style="fill:none; stroke:#BDBDBD;" />
<polygon points="450,250 391,391 250,450 108,391 50,250 108,108 249,50 391,108" style="fill:none; stroke:#BDBDBD;" />
<text x="500" y="250" style="text-anchor:middle; font-size:30px; fill:black;" >MHP</text>
<text x="426" y="426" style="text-anchor:middle; font-size:30px; fill:black;" >MMP</text>
<text x="250" y="500" style="text-anchor:middle; font-size:30px; fill:black;" >ATK</text>
<text x="73" y="426" style="text-anchor:middle; font-size:30px; fill:black;" >DEF</text>
<text x="0" y="250" style="text-anchor:middle; font-size:30px; fill:black;" >MAT</text>
<text x="73" y="73" style="text-anchor:middle; font-size:30px; fill:black;" >MDF</text>
<text x="249" y="0" style="text-anchor:middle; font-size:30px; fill:black;" >AGI</text>
<text x="426" y="73" style="text-anchor:middle; font-size:30px; fill:black;" >LUK</text>
</svg>
